<svg width="224" height="224" viewBox="0 0 224 224" fill="none" xmlns="http://www.w3.org/2000/svg">
<path d="M102.922 196.368C104.038 196.461 105.027 196.736 105.888 197.192C106.748 197.665 107.403 198.282 107.854 199.041C108.304 199.801 108.49 200.66 108.411 201.616L105.493 201.374C105.488 200.651 105.258 200.038 104.803 199.535C104.331 199.03 103.64 198.74 102.731 198.664C101.791 198.586 101.039 198.748 100.475 199.151C99.9108 199.57 99.5987 200.138 99.5391 200.855C99.4928 201.413 99.6224 201.882 99.9281 202.26C100.218 202.638 100.602 202.942 101.08 203.175C101.543 203.406 102.195 203.669 103.038 203.964C104.098 204.341 104.959 204.701 105.621 205.045C106.266 205.404 106.801 205.914 107.228 206.575C107.655 207.237 107.825 208.086 107.739 209.123C107.659 210.079 107.351 210.896 106.813 211.574C106.275 212.252 105.559 212.747 104.667 213.058C103.774 213.369 102.761 213.477 101.629 213.383C100.019 213.25 98.737 212.734 97.7841 211.836C96.8139 210.952 96.3313 209.804 96.3362 208.392L99.3498 208.642C99.3473 209.252 99.5913 209.794 100.082 210.269C100.572 210.743 101.248 211.016 102.109 211.087C102.89 211.152 103.545 211.006 104.072 210.648C104.599 210.291 104.894 209.737 104.956 208.988C104.999 208.477 104.882 208.042 104.607 207.682C104.315 207.337 103.938 207.049 103.475 206.818C103.013 206.587 102.376 206.325 101.565 206.033C100.49 205.638 99.6227 205.261 98.9622 204.901C98.2858 204.54 97.7349 204.021 97.3095 203.343C96.8669 202.68 96.6893 201.823 96.7767 200.77C96.8469 199.925 97.1443 199.147 97.669 198.436C98.1777 197.724 98.8897 197.173 99.8051 196.783C100.703 196.408 101.742 196.27 102.922 196.368Z" fill="black"/>
<path d="M93.549 203.786C93.1295 205.363 92.3898 206.681 91.33 207.74C90.2546 208.795 88.9982 209.504 87.5607 209.867C86.1036 210.241 84.6251 210.229 83.1253 209.83C81.4089 209.373 79.999 208.543 78.8954 207.339C77.7723 206.146 77.1148 204.696 76.9231 202.989L80.1006 203.835C80.2919 204.796 80.7031 205.584 81.3343 206.199C81.9654 206.814 82.768 207.251 83.7422 207.51C84.8091 207.794 85.8238 207.807 86.7862 207.55C87.7487 207.293 88.5889 206.779 89.3067 206.01C90.0091 205.237 90.5187 204.255 90.8354 203.064C91.152 201.873 91.1977 200.768 90.9724 199.748C90.7316 198.724 90.2595 197.853 89.5562 197.136C88.8487 196.435 87.9615 195.942 86.8946 195.658C85.9205 195.399 85.0068 195.38 84.1535 195.6C83.3003 195.82 82.5518 196.3 81.9081 197.039L78.7306 196.194C79.7449 194.808 81.0357 193.876 82.6031 193.399C84.1549 192.918 85.789 192.906 87.5053 193.362C89.0206 193.765 90.312 194.481 91.3794 195.51C92.4426 196.555 93.1788 197.802 93.5879 199.252C93.9815 200.697 93.9685 202.209 93.549 203.786Z" fill="black"/>
<path d="M71.1297 186.871L71.7538 194.544L73.642 195.435L76.4903 189.402L78.9645 190.57L71.8436 205.653L66.6349 203.194C65.4774 202.648 64.5964 201.984 63.9919 201.204C63.3729 200.416 63.0286 199.59 62.959 198.725C62.8749 197.854 63.0309 196.999 63.4271 196.16C63.8916 195.176 64.6044 194.415 65.5657 193.878C66.5056 193.349 67.6371 193.22 68.9602 193.49L68.1781 185.478L71.1297 186.871ZM72.7096 197.41L69.975 196.119C69.049 195.682 68.2453 195.586 67.5637 195.83C66.8676 196.068 66.3352 196.577 65.9663 197.358C65.5975 198.14 65.5421 198.857 65.8002 199.509C66.0514 200.176 66.6473 200.732 67.5878 201.176L70.3224 202.467L72.7096 197.41Z" fill="black"/>
<path d="M60.0844 179.466C61.3455 180.37 62.2994 181.497 62.9459 182.847C63.5701 184.2 63.8166 185.628 63.6853 187.128C63.5318 188.633 62.9794 190.048 62.0283 191.374C61.0771 192.7 59.9184 193.671 58.552 194.286C57.1726 194.891 55.7465 195.109 54.2737 194.939C52.7786 194.772 51.4005 194.237 50.1393 193.332C48.8651 192.418 47.916 191.285 47.2918 189.931C46.6452 188.581 46.3941 187.161 46.5383 185.67C46.6826 184.178 47.2303 182.769 48.1814 181.443C49.1325 180.117 50.296 179.14 51.6717 178.512C53.0381 177.897 54.4689 177.673 55.9639 177.84C57.4367 178.01 58.8102 178.552 60.0844 179.466ZM58.6996 181.396C57.8025 180.753 56.8583 180.381 55.8672 180.281C54.8667 180.193 53.901 180.387 52.9701 180.861C52.0169 181.339 51.1812 182.079 50.4632 183.08C49.7452 184.081 49.3173 185.103 49.1795 186.146C49.0287 187.18 49.1598 188.15 49.5728 189.057C49.9859 189.963 50.6409 190.738 51.5381 191.382C52.4352 192.025 53.3793 192.397 54.3705 192.498C55.3617 192.598 56.3292 192.416 57.2731 191.951C58.204 191.477 59.0284 190.739 59.7465 189.738C60.4645 188.737 60.9036 187.713 61.0637 186.666C61.2015 185.622 61.0685 184.641 60.6648 183.721C60.2518 182.815 59.5967 182.04 58.6996 181.396Z" fill="black"/>
<path d="M49.5211 173.333L45.5242 169.354L47.082 167.789L53.0179 173.699L41.2497 185.52L39.3108 183.589L49.5211 173.333Z" fill="black"/>
<path d="M42.096 164.838L38.6432 160.379L40.3891 159.027L45.5169 165.65L32.328 175.861L30.653 173.698L42.096 164.838Z" fill="black"/>
<path d="M28.8763 151.029C29.0937 151.475 29.125 151.922 28.9702 152.371C28.8154 152.821 28.5151 153.154 28.0692 153.371C27.6234 153.589 27.1758 153.62 26.7266 153.465C26.2773 153.31 25.944 153.01 25.7267 152.564C25.5163 152.133 25.4886 151.692 25.6433 151.243C25.7981 150.794 26.0985 150.461 26.5443 150.243C26.9901 150.026 27.4377 149.995 27.887 150.149C28.3362 150.304 28.666 150.597 28.8763 151.029Z" fill="black"/>
<path d="M28.287 129.485C28.5448 130.575 28.5899 131.6 28.4225 132.56C28.2394 133.524 27.8565 134.338 27.2736 135.002C26.6908 135.666 25.9323 136.109 24.9981 136.33L24.3242 133.48C25.0101 133.252 25.5218 132.843 25.8592 132.254C26.1929 131.649 26.2548 130.903 26.0449 130.015C25.8276 129.097 25.4402 128.432 24.8827 128.021C24.3097 127.614 23.6728 127.493 22.9721 127.659C22.4272 127.788 22.0221 128.056 21.7569 128.464C21.488 128.857 21.3172 129.317 21.2445 129.843C21.1681 130.355 21.1203 131.057 21.1012 131.949C21.0713 133.074 20.9955 134.004 20.8735 134.74C20.7323 135.464 20.4134 136.131 19.9166 136.742C19.4198 137.353 18.6654 137.778 17.6533 138.017C16.7191 138.238 15.8464 138.198 15.0353 137.897C14.2241 137.595 13.5323 137.068 12.9597 136.316C12.3872 135.563 11.9702 134.635 11.7087 133.529C11.3368 131.956 11.43 130.578 11.9885 129.394C12.5276 128.197 13.4694 127.383 14.8139 126.95L15.5098 129.893C14.9292 130.079 14.4894 130.479 14.1906 131.092C13.8917 131.706 13.8417 132.433 14.0405 133.273C14.221 134.036 14.5629 134.613 15.0663 135.004C15.5697 135.394 16.1873 135.503 16.9191 135.33C17.4174 135.212 17.795 134.967 18.0521 134.594C18.2898 134.209 18.4469 133.76 18.5233 133.249C18.5996 132.738 18.6511 132.052 18.6776 131.19C18.7193 130.046 18.8089 129.104 18.9464 128.365C19.0802 127.61 19.4033 126.925 19.9157 126.31C20.4088 125.684 21.1691 125.249 22.1968 125.006C23.022 124.811 23.8539 124.853 24.6925 125.131C25.5275 125.394 26.272 125.9 26.926 126.65C27.5609 127.388 28.0145 128.333 28.287 129.485Z" fill="black"/>
<path d="M18.3294 122.872C16.6999 122.962 15.2174 122.667 13.8819 121.988C12.5455 121.293 11.4822 120.318 10.6918 119.063C9.88465 117.794 9.43827 116.384 9.35272 114.835C9.25482 113.062 9.60728 111.464 10.4101 110.041C11.1961 108.604 12.3706 107.529 13.9338 106.818L14.115 110.101C13.2602 110.581 12.6383 111.216 12.2492 112.007C11.8602 112.797 11.6935 113.696 11.7491 114.703C11.8099 115.805 12.1118 116.774 12.6547 117.609C13.1975 118.444 13.9459 119.084 14.8999 119.528C15.8529 119.956 16.9445 120.136 18.1746 120.068C19.4048 120.001 20.4699 119.701 21.37 119.171C22.2693 118.625 22.9507 117.906 23.4143 117.015C23.8619 116.125 24.0553 115.129 23.9944 114.026C23.9389 113.02 23.6742 112.145 23.2006 111.402C22.7269 110.659 22.0388 110.096 21.1363 109.713L20.9551 106.43C22.5871 106.965 23.8727 107.904 24.8122 109.246C25.7507 110.572 26.2689 112.122 26.3668 113.896C26.4532 115.461 26.1727 116.911 25.5253 118.245C24.8618 119.579 23.9043 120.666 22.6526 121.504C21.4 122.326 19.9589 122.782 18.3294 122.872Z" fill="black"/>
<path d="M27.4631 96.3145L20.3615 99.2859L20.0992 101.357L26.7184 102.196L26.3747 104.91L9.82681 102.814L10.5504 97.1001C10.7112 95.8302 11.0691 94.7869 11.6241 93.9702C12.1811 93.1376 12.8598 92.5542 13.6601 92.2201C14.4624 91.8701 15.3239 91.7534 16.2445 91.87C17.3239 92.0067 18.2679 92.4487 19.0764 93.1962C19.871 93.9258 20.3447 94.9615 20.4973 96.3034L27.8731 93.0764L27.4631 96.3145ZM17.9325 101.083L18.3124 98.083C18.4411 97.0671 18.2836 96.273 17.8399 95.7008C17.3983 95.1126 16.749 94.7643 15.8918 94.6557C15.0346 94.5472 14.3358 94.7168 13.7953 95.1644C13.2389 95.61 12.8954 96.3487 12.7647 97.3805L12.3848 100.381L17.9325 101.083Z" fill="black"/>
<path d="M31.0805 83.5179C30.6114 84.9973 29.8354 86.2535 28.7525 87.2865C27.6592 88.2994 26.3788 88.976 24.9113 89.3164C23.4333 89.6366 21.9166 89.5501 20.3609 89.0568C18.8052 88.5635 17.5234 87.7626 16.5153 86.654C15.512 85.5302 14.8631 84.2418 14.5685 82.7888C14.2635 81.3157 14.3456 79.8395 14.8147 78.3601C15.2886 76.8654 16.0723 75.6116 17.1656 74.5987C18.2485 73.5657 19.5212 72.8867 20.9839 72.5616C22.4466 72.2365 23.9558 72.3206 25.5114 72.8139C27.0671 73.3072 28.3566 74.1105 29.3799 75.2239C30.388 76.3324 31.0446 77.6233 31.3496 79.0964C31.6441 80.5494 31.5545 82.0232 31.0805 83.5179ZM28.8157 82.7997C29.1494 81.7473 29.2104 80.7344 28.9987 79.7609C28.7718 78.7825 28.2886 77.9243 27.5491 77.1863C26.7992 76.4282 25.8371 75.8629 24.6627 75.4905C23.4883 75.1181 22.3839 75.0281 21.3494 75.2204C20.3197 75.3974 19.4379 75.8228 18.7039 76.4965C17.97 77.1701 17.4361 78.0331 17.1024 79.0855C16.7687 80.1379 16.7077 81.1508 16.9194 82.1243C17.131 83.0978 17.6042 83.9612 18.3388 84.7145C19.0783 85.4526 20.0353 86.0078 21.2096 86.3802C22.384 86.7525 23.4937 86.8526 24.5386 86.6804C25.5731 86.4881 26.465 86.0576 27.2142 85.3887C27.9481 84.7151 28.482 83.8521 28.8157 82.7997Z" fill="black"/>
<path d="M33.6373 71.5741L36.1818 66.5407L38.1523 67.5369L34.3735 75.012L19.4875 67.4869L20.7218 65.0451L33.6373 71.5741Z" fill="black"/>
<path d="M39.4129 61.8818L42.5827 57.2169L44.409 58.4578L39.7014 65.3857L25.9051 56.0111L27.4428 53.7481L39.4129 61.8818Z" fill="black"/>
<path d="M48.445 45.0332C48.0885 45.378 47.6727 45.5465 47.1976 45.5386C46.7225 45.5306 46.3125 45.3484 45.9677 44.9919C45.6229 44.6353 45.4544 44.2195 45.4624 43.7444C45.4703 43.2693 45.6525 42.8593 46.009 42.5145C46.3541 42.1808 46.7641 42.0179 47.2393 42.0259C47.7144 42.0338 48.1243 42.216 48.4692 42.5725C48.814 42.9291 48.9824 43.3449 48.9745 43.82C48.9666 44.2951 48.7901 44.6995 48.445 45.0332Z" fill="black"/>
<path d="M68.7455 37.7959C67.7891 38.3788 66.8285 38.7394 65.8635 38.8778C64.8903 39.0025 63.9977 38.8907 63.1858 38.5424C62.3739 38.194 61.7181 37.61 61.2185 36.7902L63.7187 35.2664C64.1481 35.8479 64.6953 36.2077 65.3603 36.3458C66.039 36.4756 66.7677 36.3031 67.5465 35.8285C68.3526 35.3372 68.8645 34.7629 69.0822 34.1056C69.2916 33.4346 69.2089 32.7917 68.8342 32.1769C68.5427 31.6987 68.162 31.3967 67.6919 31.271C67.2354 31.137 66.7455 31.117 66.222 31.2112C65.7122 31.2971 65.0302 31.4692 64.1758 31.7275C63.0969 32.0478 62.1887 32.2641 61.4513 32.3762C60.7193 32.4663 59.986 32.3699 59.2514 32.0868C58.5167 31.8038 57.8788 31.2183 57.3376 30.3302C56.838 29.5104 56.6057 28.6683 56.6409 27.8036C56.6761 26.939 56.9626 26.1179 57.5006 25.3404C58.0385 24.5628 58.7925 23.8785 59.7625 23.2873C61.1424 22.4463 62.4819 22.1077 63.781 22.2716C65.0854 22.4135 66.1518 23.0564 66.9802 24.2004L64.398 25.7742C64.0406 25.28 63.524 24.9858 62.8483 24.8917C62.1727 24.7976 61.4659 24.9754 60.7281 25.425C60.0587 25.8331 59.6163 26.3369 59.4009 26.9366C59.1855 27.5363 59.2735 28.1572 59.6649 28.7994C59.9313 29.2366 60.2818 29.5195 60.7162 29.6482C61.156 29.7549 61.6308 29.7654 62.1406 29.6795C62.6504 29.5936 63.3188 29.4299 64.1459 29.1881C65.2468 28.8732 66.1701 28.6665 66.9158 28.568C67.6751 28.4612 68.4263 28.5562 69.1693 28.8529C69.9175 29.1276 70.5665 29.7158 71.116 30.6175C71.5573 31.3416 71.7756 32.1455 71.7707 33.0291C71.7795 33.9044 71.529 34.7691 71.019 35.6233C70.5144 36.4555 69.7565 37.1797 68.7455 37.7959Z" fill="black"/>
<path d="M71.9465 26.2791C71.3559 24.7577 71.1767 23.2569 71.4087 21.7766C71.6557 20.2905 72.253 18.9774 73.2006 17.8372C74.1574 16.6763 75.3592 15.8151 76.806 15.2535C78.4617 14.6108 80.0901 14.4507 81.6913 14.7731C83.3016 15.0749 84.6871 15.8586 85.8478 17.1244L82.7826 18.3142C82.0614 17.6501 81.2647 17.2557 80.3924 17.1309C79.5202 17.0061 78.6142 17.1261 77.6745 17.4908C76.6453 17.8903 75.8177 18.4776 75.1918 19.2526C74.5658 20.0277 74.1895 20.9375 74.0629 21.9821C73.9513 23.0209 74.1184 24.1145 74.5642 25.263C75.01 26.4115 75.6245 27.3315 76.4078 28.0229C77.206 28.7086 78.1005 29.1337 79.0912 29.2983C80.0761 29.4481 81.0832 29.3232 82.1124 28.9237C83.0521 28.559 83.8017 28.0363 84.3613 27.3556C84.921 26.675 85.2429 25.8463 85.3272 24.8696L88.3924 23.6798C88.3897 25.3972 87.8958 26.9105 86.9108 28.2196C85.9407 29.523 84.6278 30.496 82.9722 31.1387C81.5104 31.7061 80.0452 31.8887 78.5765 31.6864C77.102 31.4693 75.7723 30.8956 74.5873 29.9653C73.4173 29.0293 72.537 27.8006 71.9465 26.2791Z" fill="black"/>
<path d="M100.027 26.7322L95.0013 20.9012L92.9505 21.2938L94.2051 27.8468L91.5179 28.3613L88.3815 11.9788L94.0388 10.8957C95.2959 10.655 96.3988 10.672 97.3473 10.9465C98.3116 11.2181 99.0766 11.6825 99.6422 12.3399C100.224 12.9942 100.602 13.7771 100.776 14.6885C100.981 15.7571 100.853 16.7916 100.393 17.792C99.9454 18.7736 99.1075 19.5449 97.8791 20.1059L103.233 26.1184L100.027 26.7322ZM92.5399 19.1488L95.5099 18.5802C96.5156 18.3876 97.2218 17.9918 97.6284 17.3926C98.0507 16.7905 98.1806 16.0651 98.0182 15.2165C97.8557 14.368 97.4779 13.7561 96.8848 13.3809C96.2887 12.99 95.4799 12.8924 94.4584 13.0879L91.4884 13.6565L92.5399 19.1488Z" fill="black"/>
<path d="M113.315 26.2055C111.763 26.218 110.328 25.8695 109.01 25.1601C107.709 24.4346 106.668 23.4269 105.89 22.1371C105.127 20.8312 104.74 19.3623 104.726 17.7304C104.713 16.0984 105.078 14.6314 105.819 13.3294C106.577 12.0273 107.6 11.011 108.891 10.2806C110.197 9.53406 111.626 9.15454 113.178 9.14205C114.746 9.12943 116.18 9.48589 117.482 10.2114C118.8 10.9209 119.84 11.9205 120.603 13.2104C121.365 14.5003 121.753 15.9613 121.766 17.5932C121.779 19.2251 121.415 20.7001 120.673 22.0181C119.932 23.3201 118.908 24.3444 117.602 25.091C116.312 25.8214 114.883 26.1929 113.315 26.2055ZM113.296 23.8296C114.4 23.8207 115.382 23.5648 116.242 23.0618C117.102 22.5429 117.768 21.8175 118.24 20.8857C118.729 19.9377 118.968 18.8478 118.958 17.6158C118.948 16.3838 118.691 15.3059 118.188 14.3819C117.7 13.4578 117.023 12.7512 116.155 12.2622C115.287 11.7732 114.301 11.5331 113.197 11.542C112.093 11.5509 111.111 11.8068 110.251 12.3097C109.391 12.8127 108.717 13.5301 108.228 14.4621C107.756 15.3939 107.524 16.4758 107.534 17.7078C107.544 18.9397 107.793 20.0257 108.281 20.9659C108.784 21.8898 109.47 22.6043 110.338 23.1094C111.206 23.5984 112.192 23.8385 113.296 23.8296Z" fill="black"/>
<path d="M125.463 24.9347L131.037 25.7939L130.701 27.9761L122.423 26.7001L124.964 10.2148L127.668 10.6316L125.463 24.9347Z" fill="black"/>
<path d="M136.468 27.422L141.886 28.99L141.272 31.111L133.226 28.7823L137.863 12.7599L140.491 13.5205L136.468 27.422Z" fill="black"/>
<path d="M155.286 30.7877C154.848 30.5555 154.559 30.2124 154.419 29.7582C154.28 29.3041 154.326 28.8578 154.558 28.4195C154.79 27.9811 155.133 27.6921 155.587 27.5524C156.042 27.4127 156.488 27.4589 156.926 27.691C157.35 27.9156 157.632 28.255 157.772 28.7092C157.912 29.1634 157.865 29.6096 157.633 30.048C157.401 30.4863 157.058 30.7753 156.604 30.915C156.15 31.0547 155.711 31.0123 155.286 30.7877Z" fill="black"/>
<path d="M168.459 47.8455C167.608 47.1169 166.968 46.3153 166.537 45.4408C166.117 44.5541 165.947 43.6708 166.026 42.7909C166.106 41.911 166.458 41.1065 167.082 40.3775L169.306 42.2823C168.886 42.8708 168.714 43.5025 168.788 44.1776C168.875 44.8631 169.265 45.5025 169.958 46.0958C170.675 46.7099 171.379 47.0186 172.072 47.0219C172.775 47.013 173.36 46.7352 173.829 46.1883C174.193 45.7631 174.362 45.3075 174.336 44.8215C174.322 44.346 174.189 43.874 173.937 43.4055C173.698 42.9474 173.323 42.3523 172.812 41.6201C172.173 40.6936 171.686 39.8971 171.351 39.2308C171.039 38.5628 170.903 37.8356 170.944 37.0495C170.986 36.2633 171.345 35.4753 172.021 34.6855C172.646 33.9564 173.375 33.4746 174.208 33.2401C175.041 33.0056 175.91 33.0235 176.816 33.294C177.722 33.5645 178.606 34.0692 179.469 34.8083C180.696 35.8596 181.433 37.0282 181.68 38.3141C181.95 39.5982 181.669 40.8114 180.838 41.9535L178.541 39.9862C178.9 39.4933 179.02 38.911 178.9 38.2394C178.78 37.5678 178.392 36.951 177.736 36.3889C177.14 35.8788 176.524 35.6144 175.887 35.5955C175.25 35.5766 174.687 35.8527 174.198 36.4238C173.865 36.8126 173.705 37.2335 173.717 37.6864C173.752 38.1376 173.889 38.5923 174.129 39.0504C174.368 39.5085 174.731 40.0932 175.217 40.8046C175.858 41.7537 176.341 42.5675 176.665 43.2459C177.002 43.9348 177.145 44.6784 177.093 45.4767C177.064 46.2733 176.706 47.0726 176.019 47.8746C175.467 48.5186 174.77 48.9752 173.929 49.2444C173.099 49.5241 172.199 49.5539 171.229 49.3337C170.282 49.1119 169.358 48.6158 168.459 47.8455Z" fill="black"/>
<path d="M180.401 47.3196C181.664 46.2866 183.036 45.651 184.515 45.4128C186.004 45.1871 187.438 45.348 188.816 45.8956C190.216 46.4455 191.407 47.3212 192.39 48.5227C193.514 49.8976 194.171 51.3962 194.36 53.0185C194.573 54.6431 194.257 56.2033 193.413 57.6991L191.332 55.1536C191.74 54.2621 191.868 53.3824 191.716 52.5144C191.564 51.6464 191.17 50.8222 190.532 50.0418C189.833 49.1871 189.018 48.5823 188.087 48.2274C187.156 47.8724 186.175 47.7967 185.142 48.0001C184.12 48.2158 183.132 48.7136 182.178 49.4935C181.224 50.2733 180.54 51.1427 180.125 52.1017C179.721 53.0731 179.594 54.0552 179.744 55.0482C179.907 56.0311 180.338 56.9498 181.037 57.8045C181.675 58.5849 182.404 59.1356 183.225 59.4568C184.045 59.7779 184.933 59.8272 185.888 59.6046L187.969 62.1501C186.335 62.6798 184.744 62.6792 183.194 62.1484C181.654 61.6301 180.322 60.6834 179.198 59.3084C178.205 58.0945 177.577 56.758 177.314 55.299C177.064 53.8298 177.197 52.3877 177.714 50.9728C178.242 49.5703 179.137 48.3526 180.401 47.3196Z" fill="black"/>
<path d="M188.673 74.158L192.659 67.5723L191.65 65.7442L185.809 68.9679L184.487 66.5725L199.091 58.5132L201.874 63.5562C202.492 64.6769 202.818 65.7307 202.851 66.7176C202.891 67.7186 202.687 68.5898 202.237 69.3314C201.795 70.087 201.168 70.6889 200.356 71.1373C199.403 71.663 198.38 71.8622 197.286 71.7347C196.214 71.6136 195.221 71.056 194.307 70.0619L190.25 77.0158L188.673 74.158ZM193.562 64.689L195.023 67.3366C195.518 68.2331 196.113 68.7818 196.809 68.9827C197.513 69.1976 198.242 69.0963 198.999 68.6789C199.755 68.2614 200.22 67.7126 200.393 67.0324C200.58 66.3445 200.422 65.5452 199.919 64.6347L198.458 61.9871L193.562 64.689Z" fill="black"/>
<path d="M193.292 86.6282C192.799 85.1566 192.686 83.6844 192.952 82.2116C193.238 80.749 193.874 79.4478 194.859 78.3079C195.864 77.1782 197.14 76.3542 198.688 75.8359C200.235 75.3177 201.743 75.2093 203.211 75.5108C204.684 75.8275 205.967 76.4859 207.061 77.4862C208.176 78.4966 208.98 79.7376 209.473 81.2092C209.97 82.6961 210.076 84.1708 209.79 85.6334C209.524 87.1062 208.896 88.4049 207.906 89.5295C206.916 90.6542 205.647 91.4756 204.099 91.9939C202.552 92.5122 201.036 92.6231 199.554 92.3267C198.086 92.0251 196.795 91.3692 195.68 90.3589C194.586 89.3586 193.79 88.115 193.292 86.6282ZM195.545 85.8737C195.895 86.9205 196.443 87.7748 197.188 88.4366C197.948 89.0933 198.844 89.5018 199.876 89.6623C200.929 89.8328 202.039 89.7225 203.207 89.3312C204.376 88.94 205.321 88.3619 206.043 87.5968C206.771 86.847 207.233 85.9836 207.429 85.0069C207.625 84.0301 207.547 83.0182 207.197 81.9714C206.846 80.9245 206.298 80.0702 205.554 79.4085C204.809 78.7467 203.918 78.328 202.881 78.1524C201.848 77.992 200.748 78.1073 199.58 78.4986C198.411 78.8898 197.456 79.4629 196.713 80.2179C195.991 80.9829 195.524 81.8563 195.313 82.8382C195.117 83.815 195.194 84.8268 195.545 85.8737Z" fill="black"/>
<path d="M198.265 97.7842L199.176 103.35L196.997 103.707L195.644 95.4407L212.105 92.7474L212.547 95.4475L198.265 97.7842Z" fill="black"/>
<path d="M199.311 109.018L199.499 114.655L197.292 114.729L197.013 106.358L213.684 105.801L213.775 108.535L199.311 109.018Z" fill="black"/>
<path d="M201.943 127.953C202.028 127.464 202.265 127.083 202.653 126.81C203.042 126.536 203.48 126.442 203.969 126.527C204.458 126.611 204.839 126.848 205.113 127.237C205.386 127.625 205.481 128.064 205.396 128.552C205.314 129.025 205.078 129.399 204.69 129.672C204.301 129.946 203.863 130.04 203.374 129.955C202.885 129.871 202.504 129.634 202.231 129.245C201.957 128.857 201.861 128.426 201.943 127.953Z" fill="black"/>
<path d="M189.808 145.764C190.237 144.729 190.801 143.872 191.499 143.191C192.211 142.517 192.998 142.081 193.86 141.884C194.721 141.687 195.595 141.773 196.482 142.14L195.36 144.845C194.67 144.628 194.016 144.66 193.397 144.94C192.773 145.235 192.285 145.804 191.936 146.647C191.574 147.519 191.499 148.284 191.711 148.944C191.937 149.609 192.383 150.08 193.048 150.356C193.565 150.57 194.051 150.59 194.504 150.414C194.952 150.254 195.36 149.981 195.727 149.596C196.088 149.227 196.538 148.686 197.076 147.973C197.759 147.079 198.365 146.369 198.895 145.844C199.433 145.339 200.082 144.985 200.843 144.781C201.603 144.577 202.463 144.674 203.424 145.072C204.311 145.44 204.995 145.984 205.476 146.703C205.957 147.422 206.209 148.254 206.233 149.2C206.257 150.145 206.051 151.142 205.616 152.191C204.996 153.684 204.114 154.747 202.968 155.38C201.83 156.034 200.59 156.143 199.246 155.707L200.405 152.914C200.985 153.103 201.576 153.036 202.177 152.714C202.778 152.391 203.244 151.831 203.576 151.033C203.876 150.309 203.936 149.641 203.757 149.03C203.578 148.418 203.141 147.969 202.446 147.681C201.973 147.484 201.523 147.462 201.096 147.614C200.678 147.787 200.288 148.059 199.927 148.429C199.566 148.798 199.122 149.325 198.597 150.007C197.893 150.91 197.269 151.622 196.724 152.141C196.174 152.674 195.511 153.04 194.736 153.239C193.969 153.458 193.099 153.365 192.123 152.96C191.34 152.635 190.69 152.114 190.173 151.398C189.65 150.696 189.343 149.849 189.251 148.859C189.169 147.889 189.354 146.857 189.808 145.764Z" fill="black"/>
<path d="M194.009 156.954C195.383 157.836 196.412 158.942 197.097 160.275C197.773 161.621 198.064 163.034 197.971 164.514C197.882 166.015 197.419 167.419 196.581 168.726C195.622 170.221 194.401 171.31 192.917 171.993C191.438 172.698 189.857 172.882 188.173 172.543L189.949 169.775C190.922 169.887 191.799 169.736 192.577 169.323C193.355 168.909 194.016 168.279 194.561 167.43C195.157 166.501 195.479 165.539 195.528 164.544C195.577 163.549 195.345 162.592 194.831 161.673C194.309 160.768 193.53 159.983 192.493 159.318C191.456 158.653 190.417 158.272 189.377 158.175C188.328 158.091 187.355 158.275 186.458 158.726C185.574 159.185 184.834 159.88 184.238 160.809C183.693 161.657 183.396 162.522 183.345 163.401C183.294 164.281 183.522 165.14 184.029 165.979L182.254 168.746C181.244 167.357 180.752 165.844 180.776 164.206C180.791 162.581 181.279 161.021 182.238 159.526C183.084 158.206 184.16 157.195 185.466 156.493C186.785 155.8 188.198 155.479 189.703 155.533C191.2 155.599 192.635 156.073 194.009 156.954Z" fill="black"/>
<path d="M171.056 173.137L178.553 174.886L179.978 173.36L175.103 168.806L176.97 166.806L189.159 178.193L185.227 182.402C184.353 183.338 183.452 183.974 182.524 184.311C181.585 184.66 180.693 184.736 179.849 184.538C178.993 184.352 178.227 183.942 177.548 183.309C176.753 182.566 176.247 181.655 176.029 180.576C175.812 179.519 176.035 178.402 176.696 177.225L168.828 175.523L171.056 173.137ZM181.574 174.851L179.51 177.061C178.81 177.809 178.473 178.545 178.498 179.269C178.512 180.004 178.834 180.667 179.465 181.257C180.097 181.847 180.763 182.118 181.463 182.072C182.175 182.036 182.886 181.639 183.596 180.879L185.66 178.669L181.574 174.851Z" fill="black"/>
<path d="M160.631 181.394C161.878 180.469 163.242 179.905 164.725 179.701C166.204 179.52 167.638 179.721 169.027 180.305C170.413 180.91 171.592 181.868 172.564 183.179C173.537 184.49 174.107 185.89 174.275 187.379C174.431 188.877 174.202 190.301 173.591 191.652C172.975 193.025 172.045 194.173 170.798 195.098C169.539 196.032 168.169 196.59 166.69 196.771C165.207 196.975 163.778 196.78 162.402 196.187C161.026 195.594 159.852 194.643 158.879 193.332C157.907 192.021 157.332 190.615 157.154 189.113C156.986 187.624 157.209 186.193 157.824 184.821C158.436 183.47 159.372 182.328 160.631 181.394ZM162.047 183.302C161.16 183.96 160.518 184.745 160.119 185.658C159.73 186.584 159.62 187.563 159.787 188.594C159.951 189.648 160.4 190.669 161.134 191.659C161.868 192.648 162.711 193.368 163.662 193.818C164.601 194.277 165.565 194.448 166.554 194.332C167.543 194.215 168.481 193.828 169.368 193.171C170.255 192.513 170.897 191.727 171.296 190.814C171.694 189.901 171.816 188.924 171.661 187.883C171.494 186.852 171.043 185.842 170.309 184.852C169.575 183.863 168.734 183.132 167.786 182.66C166.835 182.21 165.86 182.037 164.861 182.141C163.871 182.257 162.933 182.644 162.047 183.302Z" fill="black"/>
<path d="M151.566 189.579L146.556 192.17L145.542 190.209L152.982 186.361L160.644 201.177L158.214 202.434L151.566 189.579Z" fill="black"/>
<path d="M141.209 194.056L135.908 195.982L135.154 193.906L143.026 191.046L148.723 206.723L146.151 207.658L141.209 194.056Z" fill="black"/>
<path d="M124.022 202.427C124.513 202.356 124.949 202.463 125.33 202.748C125.71 203.032 125.936 203.42 126.007 203.911C126.077 204.402 125.97 204.837 125.686 205.218C125.401 205.598 125.013 205.824 124.523 205.895C124.047 205.963 123.62 205.855 123.239 205.571C122.859 205.286 122.633 204.899 122.562 204.408C122.491 203.917 122.598 203.481 122.883 203.1C123.167 202.72 123.547 202.495 124.022 202.427Z" fill="black"/>
</svg>
